<?xml version="1.0" standalone="no"?>
<!DOCTYPE svg PUBLIC "-//W3C//DTD SVG 20010904//EN"
 "http://www.w3.org/TR/2001/REC-SVG-20010904/DTD/svg10.dtd">
<svg version="1.0" xmlns="http://www.w3.org/2000/svg"
 width="128.000000pt" height="128.000000pt" viewBox="0 0 128.000000 128.000000"
 preserveAspectRatio="xMidYMid meet">
<metadata>
Created by potrace 1.14, written by Peter Selinger 2001-2017
</metadata>
<g transform="translate(0.000000,128.000000) scale(0.100000,-0.100000)"
fill="#000000" stroke="none">
<path d="M0 640 l0 -640 640 0 640 0 0 640 0 640 -640 0 -640 0 0 -640z m865
273 c94 -49 135 -129 145 -278 5 -81 11 -110 32 -150 14 -28 36 -84 49 -125
l23 -75 32 305 c18 168 33 311 33 318 1 6 11 12 22 12 19 0 21 -4 16 -37 -3
-21 -22 -202 -43 -403 -20 -201 -40 -369 -45 -374 -17 -19 -36 16 -42 77 -7
75 -39 196 -68 263 -21 48 -21 48 -31 24 -83 -204 -220 -331 -399 -370 -35 -8
-99 -11 -165 -8 -89 3 -119 9 -164 30 -117 53 -172 132 -172 247 0 258 277
461 572 421 95 -13 181 -54 256 -123 l57 -52 -5 62 c-4 40 -16 79 -34 113 -50
92 -108 116 -258 107 -177 -10 -345 -56 -499 -135 -72 -36 -91 -42 -98 -31
-12 19 7 32 118 85 127 60 245 94 418 118 17 2 71 3 120 2 69 -2 99 -7 130
-23z"/>
<path d="M490 749 c-218 -37 -399 -251 -360 -425 29 -130 141 -196 334 -195
154 0 265 47 368 154 54 56 113 168 123 232 6 35 3 45 -27 83 -43 54 -116 106
-184 131 -63 24 -179 33 -254 20z"/>
</g>
</svg>
