<svg width="250" height="60" viewBox="0 0 250 60" fill="none" xmlns="http://www.w3.org/2000/svg">
<path d="M102.146 0.292684C99.2196 0.292684 96.2928 3.21951 92.4879 10.2439C89.8536 14.9268 86.9268 21.6585 84 29.8537C82.8294 33.0732 81.6585 36.5853 80.4879 39.5121L84.5853 0.292684H80.4879L76.0977 42.7317C75.5121 40.0977 74.3415 37.4634 73.1706 34.8294C72.2928 33.366 71.7072 31.6098 70.8294 30.1464C72 26.3415 72.5853 22.5366 72.5853 19.0244C72.5853 13.7561 71.1219 9.07317 68.1951 5.56098C64.9755 1.7561 60.5853 0 55.0245 0C26.3415 0 2.63415 13.1707 1.7561 13.4634L0 14.6341L2.04878 18.1463L3.80487 17.2683C4.09755 17.2683 27.5122 4.39023 55.317 4.39023C59.7072 4.39023 63.2196 5.85366 65.5611 8.48781C67.6098 11.122 68.7804 14.9268 68.7804 19.3171C68.7804 21.6585 68.4879 23.7073 67.9023 26.0488C61.1706 17.561 51.5121 13.1707 39.5121 13.1707C17.8537 13.1707 2.92683 28.0975 2.92683 41.5611C2.92683 46.8294 5.2683 51.5121 9.65853 54.7317C14.3415 58.2438 21.0732 60 29.8537 60C42.1464 60 53.5611 55.0245 61.7562 45.9513C64.683 42.7317 67.317 38.9268 69.0732 34.8294C69.366 35.1219 69.366 35.7072 69.6585 36C74.0487 45.9513 74.3415 55.9023 74.3415 55.9023V57.9513H78.7317C78.7317 57.9513 82.5366 44.7804 87.8049 31.0245C97.7562 4.39023 101.854 4.09755 102.146 4.09755L102.439 4.39023C103.61 5.56098 105.951 10.5366 105.073 33.0732C104.488 45.6585 103.317 58.2438 103.317 58.2438H107.415C107.415 58.2438 108.585 45.9513 109.171 33.0732C110.049 6.7317 106.829 2.92683 105.659 1.46342C104.195 0.585366 103.025 0.292684 102.146 0.292684ZM58.5366 43.6098C53.2683 49.4634 44.1951 56.1951 29.8537 56.1951C22.2439 56.1951 16.0975 54.7317 12 51.5121C8.78049 48.8781 7.02438 45.6585 7.02438 41.5611C7.02438 36 10.2439 29.8537 15.8049 25.4634C21.9512 20.1951 30.4389 17.2683 39.5121 17.2683C51.2196 17.2683 60.2928 21.9512 66.4389 31.0245C64.683 35.4147 62.0487 39.8049 58.5366 43.6098ZM140.488 0.878046C137.561 0.878046 134.634 3.80487 130.829 10.8293C128.195 15.5122 125.268 22.2439 122.341 30.4389C121.171 33.6585 120 37.1706 118.829 40.0977L122.927 0.585369H118.829L112.683 58.5366H117.073C117.073 58.5366 120.878 45.9513 125.854 31.9023C135.805 5.2683 140.195 4.97562 140.195 4.97562L140.488 5.2683C141.658 6.43902 144 11.4146 143.122 33.9513C142.537 46.5366 141.366 58.5366 141.366 58.8294H145.463C145.463 58.8294 146.634 46.8294 147.22 34.2438C148.098 7.90245 144.878 4.09755 143.707 2.63414C142.537 0.878049 141.073 0.878046 140.488 0.878046ZM181.756 0.585369L160.39 50.3415L160.098 0.585369H156V2.04878C155.707 24 156.293 58.2438 156.293 58.5366H160.976L185.854 0.585369H181.756ZM247.902 46.8294L246.146 47.7072C238.829 50.634 222.146 56.1951 210.732 56.1951C206.634 56.1951 203.122 55.6098 201.073 53.5611C194.049 47.4147 204 20.1951 211.61 3.21951L212.78 0.292684H208.39C208.39 0.292684 202.537 12.878 198.732 25.1707C193.171 42.7317 193.171 51.8049 198.439 56.1951C201.073 58.5366 205.463 59.7072 211.024 59.7072C215.707 59.7072 221.268 58.8294 228 57.366C238.537 54.7317 247.61 51.2196 247.902 50.9268L249.658 50.0487L247.902 46.8294ZM195.22 0.585369L172.976 58.5366H177.366L199.317 0.585369H195.22Z" fill="black"/>
</svg>
